<svg width="200" height="200" viewBox="0 0 200 200" fill="none" xmlns="http://www.w3.org/2000/svg">
<path d="M19.1306 127.784V135.687C19.1313 137.366 19.5859 139.019 20.4558 140.507C21.3257 141.995 22.5849 143.273 24.1265 144.233L59.1981 112.906L49.475 104.221C49.2148 103.989 48.906 103.805 48.5662 103.679C48.2264 103.553 47.862 103.488 47.4942 103.488C47.1263 103.488 46.7621 103.553 46.4223 103.679C46.0824 103.805 45.7737 103.989 45.5135 104.221L19.1306 127.784Z" fill="url(#paint0_linear_3_32)"/>
<path d="M47.4912 93.9666C48.6669 93.9639 49.8316 94.1689 50.9178 94.5716C52.0039 94.9735 52.9899 95.5641 53.8187 96.3084L65.7956 107.006L90.386 85.0417C92.9366 82.7673 96.3934 81.4899 99.9976 81.4899C103.602 81.4899 107.059 82.7673 109.609 85.0417L143.801 115.582L154.369 106.143C156.049 104.646 158.323 103.806 160.696 103.806C163.069 103.806 165.344 104.646 167.023 106.143L180.866 118.517V64.3171C180.866 62.4869 180.326 60.689 179.3 59.1041C178.276 57.5191 176.802 56.2031 175.028 55.2879L105.834 19.6045C104.06 18.6893 102.046 18.2075 99.9965 18.2075C97.9472 18.2075 95.934 18.6893 94.1591 19.6045L24.9639 55.2879C23.1895 56.2031 21.7158 57.5191 20.6911 59.1041C19.6665 60.689 19.1269 62.4869 19.1265 64.3171V115.988L41.1598 96.3075C41.9892 95.5623 42.976 94.9717 44.0627 94.5707C45.1496 94.1689 46.315 93.963 47.4912 93.9666Z" fill="url(#paint1_linear_3_32)" fill-opacity="0.8"/>
<path d="M150.402 121.484L175.865 144.232C177.407 143.272 178.666 141.994 179.536 140.506C180.406 139.018 180.859 137.365 180.86 135.687V130.311L162.669 114.062C162.144 113.593 161.431 113.329 160.688 113.329C159.944 113.329 159.232 113.593 158.707 114.062L150.402 121.484Z" fill="url(#paint2_linear_3_32)"/>
<path d="M143.799 127.379L137.198 121.484L103.006 90.9443C102.208 90.2323 101.127 89.833 99.999 89.833C98.8715 89.833 97.79 90.2323 96.9922 90.9443L72.4017 112.909L65.7994 118.806L32.4629 148.578L94.1581 180.396C95.9329 181.311 97.9462 181.793 99.9955 181.793C102.045 181.793 104.058 181.311 105.833 180.396L167.528 148.578L143.799 127.379Z" fill="url(#paint3_linear_3_32)"/>
<path d="M99.9985 8.62284C102.287 8.62228 104.537 9.16023 106.518 10.1825L145.17 30.1152L183.822 50.0479C185.805 51.0703 187.451 52.5406 188.595 54.3113C189.739 56.082 190.342 58.0905 190.342 60.1351V139.866C190.342 141.91 189.739 143.918 188.595 145.689C187.451 147.459 185.805 148.93 183.822 149.952L106.518 189.817C104.536 190.84 102.287 191.378 99.998 191.378C97.7089 191.378 95.4601 190.84 93.4777 189.817L16.1736 149.952C14.1913 148.93 12.5452 147.459 11.4007 145.689C10.2563 143.918 9.65378 141.91 9.65384 139.866V60.1351C9.65381 58.0905 10.2563 56.082 11.4007 54.3113C12.5453 52.5406 14.1913 51.0703 16.1736 50.0479L93.4777 10.1825C95.4603 9.16032 97.7093 8.62238 99.9985 8.62284ZM99.9985 0C96.0152 0.00138948 92.1022 0.937931 88.6518 2.71576L11.3467 42.5811C7.90114 44.3645 5.03983 46.9242 3.0487 50.0045C1.05757 53.085 0.00632654 56.5782 0 60.1351V139.866C0.00653013 143.423 1.05799 146.916 3.04928 149.996C5.04059 153.077 7.90202 155.636 11.3477 157.42L88.6518 197.285C92.1018 199.064 96.0151 200 99.9985 200C103.982 200 107.895 199.064 111.345 197.285L188.649 157.42C192.095 155.637 194.958 153.077 196.949 149.997C198.941 146.916 199.993 143.423 200 139.866V60.1351C199.994 56.5782 198.942 53.085 196.951 50.0046C194.96 46.9242 192.098 44.3645 188.653 42.5811L111.349 2.71576C107.899 0.938048 103.986 0.00151593 100.003 0H99.9985Z" fill="url(#paint4_linear_3_32)"/>
<defs>
<linearGradient id="paint0_linear_3_32" x1="39.1643" y1="19.4725" x2="39.1643" y2="182.451" gradientUnits="userSpaceOnUse">
<stop offset="0.004" stop-color="#4C99D4"/>
<stop offset="0.5" stop-color="#56C3E6"/>
<stop offset="1" stop-color="#B0D8BC"/>
</linearGradient>
<linearGradient id="paint1_linear_3_32" x1="99.996" y1="19.5115" x2="99.996" y2="182.515" gradientUnits="userSpaceOnUse">
<stop offset="0.004" stop-color="#F5E2E2"/>
<stop offset="0.5" stop-color="#489EB9"/>
<stop offset="1" stop-color="#AEFFC6"/>
</linearGradient>
<linearGradient id="paint2_linear_3_32" x1="165.632" y1="19.4767" x2="165.632" y2="182.459" gradientUnits="userSpaceOnUse">
<stop offset="0.004" stop-color="#38D367"/>
<stop offset="0.5" stop-color="#56C3E6"/>
<stop offset="1" stop-color="#B0D8BC"/>
</linearGradient>
<linearGradient id="paint3_linear_3_32" x1="99.9955" y1="19.4833" x2="99.9955" y2="182.437" gradientUnits="userSpaceOnUse">
<stop offset="0.004" stop-color="#498DC1"/>
<stop offset="0.5" stop-color="#56C3E6"/>
<stop offset="1" stop-color="#B0D8BC"/>
</linearGradient>
<linearGradient id="paint4_linear_3_32" x1="100" y1="200" x2="100" y2="0" gradientUnits="userSpaceOnUse">
<stop stop-color="#B0D8BC"/>
<stop offset="0.5" stop-color="#56C3E6"/>
<stop offset="0.996" stop-color="#ACCCE4"/>
</linearGradient>
</defs>
</svg>
