<svg width="200" height="80" viewBox="0 0 200 80" fill="none" xmlns="http://www.w3.org/2000/svg">
<path d="M7.17398 49.9189V52.8828C7.17424 53.5122 7.34472 54.1321 7.67093 54.69C7.99713 55.2483 8.46935 55.7273 9.04744 56.0873L22.1993 44.3397L18.5531 41.0829C18.4556 40.9959 18.3398 40.9268 18.2123 40.8796C18.0849 40.8324 17.9483 40.8082 17.8103 40.8082C17.6724 40.8082 17.5358 40.8324 17.4084 40.8796C17.2809 40.9268 17.1651 40.9959 17.0676 41.0829L7.17398 49.9189Z" fill="url(#paint0_linear_3_21)"/>
<path d="M17.8092 37.2375C18.2501 37.2365 18.6868 37.3133 19.0942 37.4644C19.5015 37.6151 19.8712 37.8365 20.182 38.1157L24.6733 42.1273L33.8947 33.8907C34.8512 33.0377 36.1475 32.5587 37.4991 32.5587C38.8506 32.5587 40.147 33.0377 41.1034 33.8907L53.9254 45.3433L57.8883 41.8036C58.5182 41.2424 59.3712 40.9272 60.2611 40.9272C61.1507 40.9272 62.004 41.2424 62.6336 41.8036L67.8246 46.444V26.1189C67.8246 25.4326 67.6223 24.7584 67.2377 24.164C66.8535 23.5697 66.3009 23.0762 65.6355 22.733L39.6877 9.35171C39.0223 9.0085 38.2671 8.8278 37.4987 8.8278C36.7302 8.8278 35.9752 9.0085 35.3097 9.35171L9.36146 22.733C8.69604 23.0762 8.14342 23.5697 7.75917 24.164C7.37492 24.7584 7.17259 25.4326 7.17244 26.1189V45.4953L15.4349 38.1153C15.7459 37.8359 16.116 37.6144 16.5235 37.464C16.9311 37.3133 17.3681 37.2361 17.8092 37.2375Z" fill="url(#paint1_linear_3_21)" fill-opacity="0.8"/>
<path d="M56.4009 47.5564L65.9495 56.087C66.5277 55.727 66.9999 55.2476 67.326 54.6897C67.6521 54.1318 67.8223 53.5118 67.8227 52.8824V50.8665L61.0008 44.7733C60.8038 44.5973 60.5366 44.4985 60.2581 44.4985C59.9792 44.4985 59.712 44.5973 59.515 44.7733L56.4009 47.5564Z" fill="url(#paint2_linear_3_21)"/>
<path d="M53.9246 49.7672L51.4492 47.5564L38.6272 36.1041C38.3279 35.8371 37.9225 35.6874 37.4996 35.6874C37.0768 35.6874 36.6713 35.8371 36.3721 36.1041L27.1507 44.3407L24.6748 46.5522L12.1736 57.7169L35.3093 69.6486C35.9748 69.9918 36.7298 70.1725 37.4983 70.1725C38.2667 70.1725 39.0219 69.9918 39.6873 69.6486L62.823 57.7169L53.9246 49.7672Z" fill="url(#paint3_linear_3_21)"/>
<path d="M37.4994 5.23356C38.3577 5.23335 39.2012 5.43509 39.9443 5.81845L54.4389 13.2932L68.9334 20.7679C69.6769 21.1513 70.294 21.7027 70.7231 22.3667C71.1522 23.0307 71.3783 23.7839 71.3783 24.5507V54.4497C71.3783 55.2163 71.1522 55.9694 70.7231 56.6335C70.294 57.2972 69.6769 57.8488 68.9334 58.232L39.9443 73.1815C39.2008 73.5648 38.3577 73.7668 37.4992 73.7668C36.6408 73.7668 35.7975 73.5648 35.0541 73.1815L6.0651 58.232C5.32174 57.8488 4.70443 57.2972 4.27527 56.6335C3.84611 55.9694 3.62017 55.2163 3.62019 54.4497V24.5507C3.62018 23.7839 3.84611 23.0307 4.27527 22.3667C4.70447 21.7027 5.32174 21.1513 6.0651 20.7679L35.0541 5.81845C35.7976 5.43512 36.641 5.23339 37.4994 5.23356ZM37.4994 2C36.0057 2.00052 34.5383 2.35172 33.2444 3.01841L4.255 17.9679C2.96293 18.6367 1.88994 19.5966 1.14326 20.7517C0.39659 21.9069 0.00237245 23.2168 0 24.5507V54.4497C0.0024488 55.7836 0.396745 57.0936 1.14348 58.2486C1.89022 59.4038 2.96326 60.3636 4.25538 61.0324L33.2444 75.9819C34.5382 76.6491 36.0057 77 37.4994 77C38.9933 77 40.4607 76.6491 41.7544 75.9819L70.7435 61.0324C72.0358 60.3639 73.1091 59.4038 73.8561 58.2489C74.603 57.0936 74.9974 55.7836 75 54.4497V24.5507C74.9977 23.2168 74.6033 21.9069 73.8568 20.7517C73.1099 19.5966 72.0369 18.6367 70.745 17.9679L41.7559 3.01841C40.4622 2.35177 38.9948 2.00057 37.5009 2H37.4994Z" fill="url(#paint4_linear_3_21)"/>
<path d="M92.668 40.258C90.176 39.362 88.286 38.214 86.998 36.814C85.738 35.414 85.108 33.496 85.108 31.06C85.108 29.296 85.57 27.686 86.494 26.23C87.418 24.746 88.748 23.57 90.484 22.702C92.22 21.806 94.306 21.358 96.742 21.358C102.706 21.358 106.626 23.528 108.502 27.868L106.906 29.002C105.786 26.762 104.372 25.264 102.664 24.508C100.984 23.752 99.01 23.374 96.742 23.374C94.754 23.374 93.032 23.724 91.576 24.424C90.148 25.096 89.042 26.02 88.258 27.196C87.502 28.344 87.124 29.632 87.124 31.06C87.124 33.02 87.656 34.546 88.72 35.638C89.784 36.73 91.324 37.64 93.34 38.368L98.086 40.048C100.214 40.804 101.656 41.686 102.412 42.694C103.168 43.674 103.546 44.794 103.546 46.054C103.546 47.566 103.028 48.826 101.992 49.834C100.956 50.842 99.234 51.346 96.826 51.346C95.062 51.346 93.368 50.8 91.744 49.708C90.12 48.588 88.776 46.866 87.712 44.542L89.434 43.366C90.162 45.242 91.212 46.712 92.584 47.776C93.956 48.812 95.37 49.33 96.826 49.33C98.45 49.33 99.64 49.036 100.396 48.448C101.152 47.86 101.53 47.062 101.53 46.054C101.53 45.158 101.222 44.388 100.606 43.744C99.99 43.072 98.926 42.47 97.414 41.938L92.668 40.258ZM95.398 35.68C93.578 35.064 92.304 34.322 91.576 33.454C90.848 32.586 90.484 31.648 90.484 30.64C90.484 29.772 90.68 28.96 91.072 28.204C91.492 27.448 92.178 26.832 93.13 26.356C94.11 25.88 95.412 25.642 97.036 25.642C98.688 25.642 100.172 26.062 101.488 26.902C102.804 27.742 103.854 28.988 104.638 30.64L102.958 31.858C102.454 30.514 101.67 29.478 100.606 28.75C99.542 28.022 98.352 27.658 97.036 27.658C95.412 27.658 94.25 27.952 93.55 28.54C92.85 29.1 92.5 29.8 92.5 30.64C92.5 31.928 93.676 32.964 96.028 33.748L101.236 35.47C103.728 36.282 105.702 37.472 107.158 39.04C108.642 40.608 109.384 42.666 109.384 45.214C109.384 48.602 108.292 51.22 106.108 53.068C103.952 54.916 100.872 55.84 96.868 55.84C93.48 55.84 90.666 55.084 88.426 53.572C86.186 52.06 84.604 49.96 83.68 47.272L85.192 46.264C86.424 49.036 88.02 50.996 89.98 52.144C91.94 53.292 94.236 53.866 96.868 53.866C100.2 53.866 102.776 53.124 104.596 51.64C106.444 50.156 107.368 48.014 107.368 45.214C107.368 43.142 106.738 41.49 105.478 40.258C104.246 39.026 102.622 38.074 100.606 37.402L95.398 35.68ZM132.14 31.606V46.39C131.692 48.014 130.866 49.26 129.662 50.128C128.458 50.968 127.1 51.388 125.588 51.388C124.048 51.388 122.774 50.912 121.766 49.96C120.758 48.98 120.254 47.566 120.254 45.718V31.606H122.27V45.718C122.27 46.894 122.578 47.804 123.194 48.448C123.81 49.064 124.608 49.372 125.588 49.372C126.652 49.372 127.604 49.092 128.444 48.532C129.284 47.972 129.844 47.174 130.124 46.138V31.606H132.14ZM135.458 31.606H137.474V55H135.458V31.606ZM130.796 52.858C130.208 53.698 129.298 54.356 128.066 54.832C126.862 55.28 125.308 55.504 123.404 55.504C120.8 55.504 118.728 54.72 117.188 53.152C115.648 51.584 114.878 49.526 114.878 46.978V31.606H116.894V46.978C116.894 48.938 117.482 50.52 118.658 51.724C119.834 52.928 121.416 53.53 123.404 53.53C124.468 53.53 125.532 53.432 126.596 53.236C127.66 53.04 128.71 52.592 129.746 51.892C130.782 51.164 131.804 50.044 132.812 48.532V55H130.796V52.858ZM163.76 39.628C163.76 38.424 163.494 37.332 162.962 36.352C162.43 35.344 161.674 34.546 160.694 33.958C159.742 33.37 158.594 33.076 157.25 33.076C156.186 33.076 155.122 33.174 154.058 33.37C152.994 33.566 151.944 34.014 150.908 34.714C149.872 35.414 148.85 36.534 147.842 38.074V31.606H149.858V33.748C150.446 32.908 151.342 32.25 152.546 31.774C153.778 31.298 155.346 31.06 157.25 31.06C158.986 31.06 160.484 31.452 161.744 32.236C163.032 32.992 164.026 34.028 164.726 35.344C165.426 36.632 165.776 38.06 165.776 39.628V55H163.76V39.628ZM143.18 31.606H145.196V55H143.18V31.606ZM158.384 40.888C158.384 39.712 158.076 38.816 157.46 38.2C156.844 37.556 156.046 37.234 155.066 37.234C154.03 37.234 153.092 37.514 152.252 38.074C151.412 38.634 150.838 39.432 150.53 40.468V55H148.514V40.216C148.99 38.564 149.816 37.318 150.992 36.478C152.196 35.638 153.554 35.218 155.066 35.218C156.634 35.218 157.908 35.708 158.888 36.688C159.896 37.64 160.4 39.04 160.4 40.888V55H158.384V40.888ZM186.35 51.976C185.734 52.536 184.908 52.984 183.872 53.32C182.864 53.628 181.758 53.782 180.554 53.782C178.566 53.782 176.788 53.362 175.22 52.522C173.652 51.682 172.42 50.436 171.524 48.784C170.628 47.132 170.18 45.088 170.18 42.652C170.18 40.188 170.628 38.102 171.524 36.394C172.42 34.658 173.624 33.342 175.136 32.446C176.676 31.522 178.384 31.06 180.26 31.06C181.744 31.06 183.144 31.27 184.46 31.69C185.804 32.11 186.742 32.726 187.274 33.538V31.606H189.29V38.578C188.478 36.926 187.568 35.722 186.56 34.966C185.58 34.182 184.544 33.678 183.452 33.454C182.388 33.202 181.324 33.076 180.26 33.076C177.684 33.076 175.696 33.93 174.296 35.638C172.896 37.318 172.196 39.656 172.196 42.652C172.196 45.62 172.98 47.888 174.548 49.456C176.144 50.996 178.146 51.766 180.554 51.766C181.338 51.766 182.122 51.71 182.906 51.598C183.718 51.458 184.558 51.15 185.426 50.674C186.322 50.17 187.302 49.358 188.366 48.238V53.488C188.366 54.664 188.156 55.714 187.736 56.638C187.316 57.562 186.504 58.276 185.3 58.78C184.096 59.312 182.332 59.578 180.008 59.578C179.028 59.578 177.81 59.494 176.354 59.326C174.898 59.158 173.456 58.934 172.028 58.654L171.44 56.386C172.224 56.61 173.134 56.806 174.17 56.974C175.234 57.17 176.284 57.31 177.32 57.394C178.384 57.506 179.28 57.562 180.008 57.562C181.716 57.562 183.018 57.394 183.914 57.058C184.838 56.75 185.468 56.288 185.804 55.672C186.168 55.084 186.35 54.356 186.35 53.488V51.976ZM193.406 31.606V53.866C193.406 55.994 192.972 57.772 192.104 59.2C191.264 60.656 189.878 61.734 187.946 62.434C186.042 63.162 183.48 63.526 180.26 63.526C178.888 63.526 177.53 63.456 176.186 63.316C174.842 63.176 173.834 63.05 173.162 62.938L172.574 60.754C173.974 61.034 175.318 61.23 176.606 61.342C177.922 61.454 179.14 61.51 180.26 61.51C184.264 61.51 187.12 60.894 188.828 59.662C190.536 58.43 191.39 56.498 191.39 53.866V31.606H193.406ZM188.366 44.248C188.366 45.34 188.086 46.348 187.526 47.272C186.966 48.168 186.21 48.882 185.258 49.414C184.306 49.946 183.256 50.212 182.108 50.212C180.176 50.212 178.566 49.624 177.278 48.448C176.018 47.244 175.388 45.326 175.388 42.694C175.388 40.118 176.018 38.242 177.278 37.066C178.566 35.89 180.148 35.302 182.024 35.302C183.564 35.302 184.852 35.708 185.888 36.52C186.952 37.304 187.778 38.396 188.366 39.796V44.248ZM186.35 40.174C185.986 39.306 185.44 38.62 184.712 38.116C183.984 37.584 183.088 37.318 182.024 37.318C180.652 37.318 179.532 37.752 178.664 38.62C177.824 39.488 177.404 40.846 177.404 42.694C177.404 44.57 177.838 45.956 178.706 46.852C179.574 47.748 180.708 48.196 182.108 48.196C183.256 48.196 184.25 47.846 185.09 47.146C185.93 46.418 186.35 45.452 186.35 44.248V40.174Z" fill="#97B4BD"/>
<defs>
<linearGradient id="paint0_linear_3_21" x1="14.6866" y1="9.30218" x2="14.6866" y2="70.4193" gradientUnits="userSpaceOnUse">
<stop offset="0.004" stop-color="#4C99D4"/>
<stop offset="0.5" stop-color="#56C3E6"/>
<stop offset="1" stop-color="#B0D8BC"/>
</linearGradient>
<linearGradient id="paint1_linear_3_21" x1="37.4985" y1="9.31682" x2="37.4985" y2="70.4432" gradientUnits="userSpaceOnUse">
<stop offset="0.004" stop-color="#F5E2E2"/>
<stop offset="0.5" stop-color="#489EB9"/>
<stop offset="1" stop-color="#AEFFC6"/>
</linearGradient>
<linearGradient id="paint2_linear_3_21" x1="62.112" y1="9.30374" x2="62.112" y2="70.4223" gradientUnits="userSpaceOnUse">
<stop offset="0.004" stop-color="#38D367"/>
<stop offset="0.5" stop-color="#56C3E6"/>
<stop offset="1" stop-color="#B0D8BC"/>
</linearGradient>
<linearGradient id="paint3_linear_3_21" x1="37.4983" y1="9.30623" x2="37.4983" y2="70.4139" gradientUnits="userSpaceOnUse">
<stop offset="0.004" stop-color="#498DC1"/>
<stop offset="0.5" stop-color="#56C3E6"/>
<stop offset="1" stop-color="#B0D8BC"/>
</linearGradient>
<linearGradient id="paint4_linear_3_21" x1="37.5" y1="77" x2="37.5" y2="2" gradientUnits="userSpaceOnUse">
<stop stop-color="#B0D8BC"/>
<stop offset="0.5" stop-color="#56C3E6"/>
<stop offset="0.996" stop-color="#ACCCE4"/>
</linearGradient>
</defs>
</svg>
